<svg xmlns="http://www.w3.org/2000/svg" width="31" height="32" viewBox="0 0 31 32" fill="none" class="injected-svg" data-src="/Softimage/Mask_group_37_7df7e0a59d 1.svg" xmlns:xlink="http://www.w3.org/1999/xlink" role="img">
<g clip-path="url(#clip0_2690_1709-996)">
<mask id="mask0_2690_1709-997" style="mask-type:alpha" maskUnits="userSpaceOnUse" x="0" y="0" width="31" height="32">
<path d="M31 0.152344H0V31.1523H31V0.152344Z" fill="#D9D9D9"></path>
</mask>
<g mask="url(#mask0_2690_1709-997)">
<mask id="mask1_2690_1709-998" style="mask-type:luminance" maskUnits="userSpaceOnUse" x="0" y="1" width="31" height="31">
<path d="M31.0013 1.06836H0.917969V31.1517H31.0013V1.06836Z" fill="white"></path>
</mask>
<g mask="url(#mask1_2690_1709-998)">
<path d="M29.295 9.89381C29.295 9.39242 29.1947 8.99131 28.9942 8.5902C28.7936 8.18908 28.4928 7.88825 27.9914 7.6877C24.4817 5.68214 20.8717 3.57631 17.362 1.57075C16.3592 0.969081 15.4567 1.06936 14.5542 1.57075C13.05 2.37297 6.03053 6.38408 3.9247 7.58742C3.0222 8.08881 2.62109 8.89103 2.62109 9.89381C2.62109 14.0052 2.62109 18.1166 2.62109 22.228C2.62109 22.7294 2.72137 23.1305 2.92192 23.5316C3.12248 23.9327 3.42331 24.2336 3.9247 24.5344C6.03053 25.7377 13.1503 29.8491 14.5542 30.6513C15.4567 31.253 16.4595 31.253 17.362 30.6513C20.8717 28.6458 24.4817 26.54 27.9914 24.5344C28.3925 24.2336 28.7936 23.9327 28.9942 23.5316C29.1947 23.1305 29.295 22.7294 29.295 22.228C29.295 22.228 29.295 14.0052 29.295 9.89381Z" fill="#A9B9CB"></path>
<path d="M17.362 1.46919C16.3592 0.867518 15.4567 0.967795 14.5542 1.46919C13.05 2.37169 6.03053 6.3828 3.9247 7.58613C3.0222 8.08752 2.62109 8.88974 2.62109 9.89252C2.62109 14.0039 2.62109 18.1153 2.62109 22.2267C2.62109 22.7281 2.72137 23.1292 2.92192 23.5303C3.12248 23.9314 3.42331 24.2323 3.9247 24.5331C4.62664 24.9342 5.32859 25.3353 6.03053 25.7364L25.4845 6.18224C22.777 4.67808 20.0695 3.07363 17.362 1.46919Z" fill="#7F8B99"></path>
<path d="M18.7674 14.2042H22.8788C22.8788 12.4995 21.1741 8.1875 16.0599 8.1875C12.851 8.1875 8.53906 10.1931 8.53906 16.1095C8.53906 21.9256 12.7508 23.8309 16.0599 23.8309C21.3747 23.8309 22.6783 20.1206 22.6783 18.115L18.6672 17.9145C18.6672 17.9145 18.7674 20.3211 16.0599 20.3211C13.553 20.3211 13.0516 17.2125 13.0516 16.1095C13.0516 14.505 13.6533 11.8978 16.0599 11.8978C18.4666 11.8978 18.7674 14.2042 18.7674 14.2042Z" fill="white"></path>
</g>
</g>
</g>
<defs>
<clipPath id="clip0_2690_1709-996">
<rect width="31" height="31" fill="white" transform="translate(0 0.152344)"></rect>
</clipPath>
</defs>
</svg>