<svg xmlns="http://www.w3.org/2000/svg" width="31" height="32" viewBox="0 0 31 32" fill="none" class="injected-svg" data-src="/Softimage/Mask_group_39_36b5c7d840 1.svg" xmlns:xlink="http://www.w3.org/1999/xlink" role="img">
<g clip-path="url(#clip0_2690_1688-990)">
<mask id="mask0_2690_1688-991" style="mask-type:alpha" maskUnits="userSpaceOnUse" x="0" y="0" width="31" height="32">
<path d="M31 0.152344H0V31.1523H31V0.152344Z" fill="#D9D9D9"></path>
</mask>
<g mask="url(#mask0_2690_1688-991)">
<mask id="mask1_2690_1688-992" style="mask-type:luminance" maskUnits="userSpaceOnUse" x="4" y="4" width="24" height="24">
<path d="M27.8333 4.15234H4V27.9856H27.8333V4.15234Z" fill="white"></path>
</mask>
<g mask="url(#mask1_2690_1688-992)">
<path d="M23.5958 12.3299C23.3485 12.2448 23.0924 12.1643 22.8286 12.0881C22.8719 11.9112 22.9117 11.7366 22.9471 11.5648C23.5279 8.74573 23.1481 6.47463 21.8515 5.72688C20.6081 5.00989 18.5748 5.75747 16.5212 7.54466C16.3237 7.71652 16.1256 7.89847 15.9277 8.08916C15.7958 7.963 15.6641 7.84107 15.5328 7.72445C13.3805 5.81346 11.2232 5.00815 9.92787 5.75806C8.68571 6.47713 8.31785 8.61219 8.84063 11.2839C8.89112 11.542 8.95014 11.8055 9.01688 12.0734C8.71153 12.1601 8.41679 12.2525 8.13477 12.3508C5.61148 13.2305 4 14.6093 4 16.0394C4 17.5164 5.72993 18.9979 8.35812 19.8962C8.56551 19.9671 8.78073 20.0341 9.00254 20.0978C8.93052 20.3876 8.86792 20.6716 8.81537 20.9485C8.31689 23.5739 8.70617 25.6585 9.94499 26.373C11.2246 27.1109 13.3721 26.3525 15.4633 24.5245C15.6286 24.3801 15.7944 24.2268 15.9606 24.0662C16.176 24.2736 16.391 24.4699 16.6049 24.654C18.6304 26.397 20.631 27.1009 21.8687 26.3844C23.147 25.6443 23.5625 23.405 23.0231 20.6804C22.9819 20.4723 22.934 20.2597 22.8801 20.0433C23.031 19.9988 23.179 19.9527 23.3234 19.9049C26.0556 18.9996 27.8333 17.5362 27.8333 16.0394C27.8333 14.6041 26.1699 13.2161 23.5958 12.3299ZM23.0032 18.9384C22.8729 18.9816 22.7391 19.0233 22.6029 19.0637C22.3013 18.1088 21.8941 17.0934 21.396 16.0444C21.8714 15.0203 22.2627 14.0178 22.5559 13.0691C22.7997 13.1397 23.0364 13.2141 23.2644 13.2926C25.4699 14.0518 26.8152 15.1744 26.8152 16.0394C26.8152 16.9607 25.3623 18.1567 23.0032 18.9384ZM22.0243 20.8781C22.2628 22.0829 22.2969 23.1721 22.1389 24.0236C21.9969 24.7888 21.7115 25.2989 21.3585 25.5032C20.6074 25.938 19.0012 25.3729 17.2689 23.8822C17.0704 23.7113 16.8703 23.5289 16.6697 23.3358C17.3412 22.6013 18.0124 21.7474 18.6675 20.7991C19.8196 20.6969 20.9082 20.5298 21.8953 20.3016C21.9439 20.4977 21.9871 20.6901 22.0243 20.8781ZM12.1253 25.4281C11.3915 25.6873 10.807 25.6947 10.4537 25.491C9.70197 25.0574 9.38943 23.3836 9.81573 21.1384C9.86455 20.8813 9.92266 20.6172 9.98967 20.3472C10.966 20.5631 12.0465 20.7184 13.2015 20.8121C13.8609 21.74 14.5515 22.5929 15.2474 23.3397C15.0954 23.4865 14.9439 23.6262 14.7933 23.7579C13.8686 24.5662 12.9419 25.1397 12.1253 25.4281ZM8.68742 18.9328C7.52527 18.5356 6.56553 18.0193 5.90768 17.456C5.31656 16.9498 5.01811 16.4472 5.01811 16.0394C5.01811 15.1715 6.31197 14.0646 8.4699 13.3122C8.73175 13.2209 9.00583 13.1349 9.29029 13.0541C9.58852 14.0242 9.97974 15.0385 10.4518 16.0642C9.97363 17.1051 9.57684 18.1355 9.27567 19.117C9.07289 19.0587 8.87646 18.9974 8.68742 18.9328ZM9.83984 11.0884C9.39193 8.79932 9.68937 7.07253 10.4379 6.63923C11.2353 6.17762 12.9984 6.83577 14.8567 8.48583C14.9755 8.59129 15.0948 8.70168 15.2143 8.81588C14.5219 9.5594 13.8376 10.4059 13.184 11.3283C12.0631 11.4322 10.9902 11.5991 10.0037 11.8226C9.94165 11.5731 9.88671 11.328 9.83984 11.0884ZM20.1204 13.6269C19.8846 13.2196 19.6425 12.8218 19.3957 12.435C20.1561 12.5311 20.8847 12.6587 21.5689 12.8149C21.3635 13.4732 21.1074 14.1615 20.8061 14.8671C20.5899 14.4567 20.3612 14.0429 20.1204 13.6269ZM15.928 9.54351C16.3977 10.0523 16.868 10.6203 17.3305 11.2366C16.8644 11.2146 16.3925 11.2032 15.9167 11.2032C15.4454 11.2032 14.9769 11.2144 14.5136 11.236C14.9767 10.6254 15.4511 10.0582 15.928 9.54351ZM11.7088 13.634C11.4732 14.0424 11.2488 14.454 11.036 14.8664C10.7395 14.1632 10.4858 13.4718 10.2787 12.8041C10.9587 12.652 11.6838 12.5275 12.4394 12.4332C12.1891 12.8236 11.945 13.2244 11.7088 13.634ZM12.4612 19.7182C11.6805 19.6311 10.9444 19.5131 10.2646 19.3651C10.4751 18.6855 10.7343 17.9793 11.0371 17.261C11.2505 17.673 11.4758 18.0848 11.7128 18.4942C11.9542 18.9113 12.2044 19.3198 12.4612 19.7182ZM15.9562 22.6071C15.4736 22.0864 14.9923 21.5104 14.5222 20.891C14.9785 20.9089 15.4438 20.918 15.9167 20.918C16.4025 20.918 16.8827 20.9071 17.3554 20.8861C16.8913 21.5167 16.4226 22.0935 15.9562 22.6071ZM20.8158 17.2244C21.1343 17.9505 21.4029 18.653 21.6161 19.321C20.9251 19.4786 20.179 19.6056 19.3929 19.6999C19.6403 19.3079 19.8845 18.9033 20.1245 18.4872C20.3673 18.0662 20.5979 17.6445 20.8158 17.2244ZM19.2426 17.9785C18.87 18.6245 18.4875 19.2412 18.0992 19.8232C17.392 19.8738 16.6614 19.8999 15.9167 19.8999C15.175 19.8999 14.4535 19.8768 13.7588 19.8317C13.3549 19.242 12.9641 18.6236 12.5939 17.9841C12.2247 17.3464 11.8849 16.7033 11.5771 16.0638C11.8849 15.4229 12.2238 14.779 12.5909 14.1425C12.9589 13.5042 13.3462 12.8889 13.7464 12.3028C14.4552 12.2493 15.1821 12.2213 15.9166 12.2213C16.6545 12.2213 17.3823 12.2495 18.0909 12.3035C18.485 12.8853 18.8697 13.4988 19.2392 14.1371C19.6129 14.7826 19.9562 15.4221 20.2667 16.0494C19.9572 16.6873 19.6146 17.3333 19.2426 17.9785ZM21.3429 6.60894C22.141 7.06919 22.4514 8.92536 21.95 11.3594C21.9179 11.5147 21.882 11.6729 21.8428 11.8332C20.854 11.605 19.7803 11.4353 18.6561 11.3298C18.0012 10.3972 17.3226 9.54939 16.6414 8.81541C16.8246 8.6392 17.0074 8.47121 17.1896 8.31268C18.9491 6.78143 20.5936 6.17686 21.3429 6.60894ZM15.9167 13.9112C17.092 13.9112 18.0449 14.864 18.0449 16.0394C18.0449 17.2148 17.092 18.1676 15.9167 18.1676C14.7413 18.1676 13.7884 17.2148 13.7884 16.0394C13.7884 14.864 14.7413 13.9112 15.9167 13.9112Z" fill="#00D8FF"></path>
</g>
</g>
</g>
<defs>
<clipPath id="clip0_2690_1688-990">
<rect width="31" height="31" fill="white" transform="translate(0 0.152344)"></rect>
</clipPath>
</defs>
</svg>