<svg xmlns:xlink="http://www.w3.org/1999/xlink"  width="31" height="32" viewBox="0 0 31 32" fill="none" xmlns="http://www.w3.org/2000/svg">
<path d="M4.38281 4.94922L23.4046 25.0983C23.5739 25.2225 23.7817 25.2826 23.9911 25.2681C24.2005 25.2536 24.398 25.1653 24.5485 25.019C24.6881 24.882 24.7759 24.7008 24.7967 24.5064C24.8175 24.3119 24.7702 24.1162 24.6628 23.9528L4.38281 4.94922Z" fill="#DF4F4F"/>
<path d="M10.4062 6.85352L24.8913 22.4698C25.0606 22.594 25.2684 22.6541 25.4778 22.6396C25.6873 22.6251 25.8847 22.5368 26.0352 22.3905C26.1748 22.2535 26.2625 22.0723 26.2834 21.8779C26.3042 21.6834 26.2569 21.4877 26.1495 21.3243L10.4062 6.85352Z" fill="#DF4F4F"/>
<path d="M6.17578 10.9297L20.6609 26.5484C20.8302 26.6725 21.038 26.7327 21.2474 26.7182C21.4568 26.7037 21.6543 26.6154 21.8048 26.469C21.9444 26.3321 22.0321 26.1509 22.053 25.9564C22.0738 25.762 22.0265 25.5663 21.919 25.4029L6.17578 10.9297Z" fill="#DF4F4F"/>
<path d="M15.5039 8.49219L25.6244 19.4028C25.7424 19.4897 25.8873 19.5321 26.0335 19.5224C26.1797 19.5126 26.3178 19.4515 26.4232 19.3497C26.5207 19.254 26.582 19.1273 26.5964 18.9915C26.6109 18.8556 26.5777 18.7189 26.5025 18.6048L15.5039 8.49219Z" fill="#DF4F4F"/>
<path d="M7.57031 15.6523L17.6901 26.5622C17.808 26.6491 17.953 26.6914 18.0992 26.6817C18.2454 26.672 18.3835 26.6108 18.4889 26.509C18.5864 26.4133 18.6476 26.2867 18.6621 26.1508C18.6766 26.0149 18.6434 25.8783 18.5682 25.7641L7.57031 15.6523Z" fill="#DF4F4F"/>
<path d="M20.6953 10.8535L25.282 15.8131C25.341 15.8547 25.4126 15.875 25.4846 15.8705C25.5568 15.8661 25.6252 15.8371 25.6786 15.7885C25.7266 15.7451 25.7571 15.6857 25.7644 15.6214C25.7717 15.5572 25.7553 15.4925 25.7183 15.4394L20.6969 10.8535H20.6953Z" fill="#DF4F4F"/>
<path d="M10.1055 20.6777L14.6922 25.6372C14.7512 25.6789 14.8227 25.6991 14.8948 25.6947C14.9669 25.6902 15.0354 25.6613 15.0888 25.6126C15.1367 25.5692 15.1672 25.5098 15.1745 25.4456C15.1818 25.3813 15.1655 25.3166 15.1284 25.2636L10.1055 20.6777Z" fill="#DF4F4F"/>
</svg>
