<svg xmlns="http://www.w3.org/2000/svg" width="27" height="27" viewBox="0 0 27 27" fill="none" class="injected-svg" data-src="/Softimage/Mask_group_22_073d002a13.svg" xmlns:xlink="http://www.w3.org/1999/xlink" role="img">
<g clip-path="url(#clip0_2750_1150-1661)">
<mask id="mask0_2750_1150-1662" style="mask-type:alpha" maskUnits="userSpaceOnUse" x="0" y="0" width="27" height="27">
<path d="M26.6555 0.501953H0.242188V26.9152H26.6555V0.501953Z" fill="#D9D9D9"></path>
</mask>
<g mask="url(#mask0_2750_1150-1662)">
<path d="M21.0456 18.1543V10.7313C21.0456 10.1502 20.7363 9.60663 20.2302 9.31608L13.8007 5.60463C13.2946 5.31408 12.6666 5.31408 12.1605 5.60463L5.72165 9.31608C5.21554 9.60663 4.90625 10.1502 4.90625 10.7313V18.1543C4.90625 18.7354 5.21554 19.279 5.72165 19.5695L12.1512 23.281C12.6573 23.5716 13.2852 23.5716 13.7913 23.281L20.2208 19.5695C20.7363 19.279 21.0456 18.7354 21.0456 18.1543Z" fill="#42239B"></path>
<path d="M11.0217 12.6978C11.3013 12.6978 11.5279 12.4711 11.5279 12.1917C11.5279 11.9121 11.3013 11.6855 11.0217 11.6855C10.7423 11.6855 10.5156 11.9121 10.5156 12.1917C10.5156 12.4711 10.7423 12.6978 11.0217 12.6978Z" fill="#FFFCFF"></path>
<path d="M18.5429 18.3787C18.724 18.3787 18.8709 18.2319 18.8709 18.0507C18.8709 17.8695 18.724 17.7227 18.5429 17.7227C18.3617 17.7227 18.2148 17.8695 18.2148 18.0507C18.2148 18.2319 18.3617 18.3787 18.5429 18.3787Z" fill="#6C52DD"></path>
<path d="M12.9648 20.6365C13.1459 20.6365 13.2928 20.4896 13.2928 20.3085C13.2928 20.1273 13.1459 19.9805 12.9648 19.9805C12.7835 19.9805 12.6367 20.1273 12.6367 20.3085C12.6367 20.4896 12.7835 20.6365 12.9648 20.6365Z" fill="#6C52DD"></path>
<path d="M14.9882 9.23032C15.1693 9.23032 15.3162 9.08342 15.3162 8.90225C15.3162 8.72108 15.1693 8.57422 14.9882 8.57422C14.807 8.57422 14.6602 8.72108 14.6602 8.90225C14.6602 9.08342 14.807 9.23032 14.9882 9.23032Z" fill="#6C52DD"></path>
<path d="M10.8632 9.23032C11.0443 9.23032 11.1912 9.08342 11.1912 8.90225C11.1912 8.72108 11.0443 8.57422 10.8632 8.57422C10.682 8.57422 10.5352 8.72108 10.5352 8.90225C10.5352 9.08342 10.682 9.23032 10.8632 9.23032Z" fill="#6C52DD"></path>
<path d="M18.5452 15.7837C18.8246 15.7837 19.0513 15.5572 19.0513 15.2776C19.0513 14.9981 18.8246 14.7715 18.5452 14.7715C18.2656 14.7715 18.0391 14.9981 18.0391 15.2776C18.0391 15.5572 18.2656 15.7837 18.5452 15.7837Z" fill="#6C52DD"></path>
<path d="M15.6389 19.1861C15.9184 19.1861 16.145 18.9594 16.145 18.6799C16.145 18.4004 15.9184 18.1738 15.6389 18.1738C15.3594 18.1738 15.1328 18.4004 15.1328 18.6799C15.1328 18.9594 15.3594 19.1861 15.6389 19.1861Z" fill="#FFFCFF"></path>
<path d="M9.66627 19.3521C9.94582 19.3521 10.1724 19.1254 10.1724 18.846C10.1724 18.5664 9.94582 18.3398 9.66627 18.3398C9.38671 18.3398 9.16016 18.5664 9.16016 18.846C9.16016 19.1254 9.38671 19.3521 9.66627 19.3521Z" fill="#FFFCFF"></path>
<path d="M9.66936 14.5731C10.0109 14.5731 10.2879 14.2962 10.2879 13.9545C10.2879 13.6129 10.0109 13.3359 9.66936 13.3359C9.32769 13.3359 9.05078 13.6129 9.05078 13.9545C9.05078 14.2962 9.32769 14.5731 9.66936 14.5731Z" fill="#FFFCFF"></path>
<path d="M12.9701 17.7977C13.3117 17.7977 13.5887 17.5208 13.5887 17.1791C13.5887 16.8375 13.3117 16.5605 12.9701 16.5605C12.6285 16.5605 12.3516 16.8375 12.3516 17.1791C12.3516 17.5208 12.6285 17.7977 12.9701 17.7977Z" fill="#6C52DD"></path>
<path d="M12.9701 11.6044C13.3117 11.6044 13.5887 11.3274 13.5887 10.9858C13.5887 10.6442 13.3117 10.3672 12.9701 10.3672C12.6285 10.3672 12.3516 10.6442 12.3516 10.9858C12.3516 11.3274 12.6285 11.6044 12.9701 11.6044Z" fill="#6C52DD"></path>
<path d="M15.6225 16.0633C15.9642 16.0633 16.2411 15.7864 16.2411 15.4448C16.2411 15.1031 15.9642 14.8262 15.6225 14.8262C15.2809 14.8262 15.0039 15.1031 15.0039 15.4448C15.0039 15.7864 15.2809 16.0633 15.6225 16.0633Z" fill="#FFFCFF"></path>
<path d="M8.27874 10.8153C8.62038 10.8153 8.89734 10.5384 8.89734 10.1967C8.89734 9.85512 8.62038 9.57812 8.27874 9.57812C7.93711 9.57812 7.66016 9.85512 7.66016 10.1967C7.66016 10.5384 7.93711 10.8153 8.27874 10.8153Z" fill="#FFFCFF"></path>
<path d="M15.7312 11.4629H15.5156V18.9983H15.7312V11.4629Z" fill="#FFFCFF"></path>
<path d="M9.77025 13.8047H9.55469V19.222H9.77025V13.8047Z" fill="#FFFCFF"></path>
<path d="M8.36558 10.141L8.31871 10.1035L8.1875 10.2816L15.6011 15.5489L15.648 15.5864L15.7792 15.4083L8.36558 10.141Z" fill="#FFFCFF"></path>
<path d="M11.059 11.9863L9.20312 14.1701L9.37183 14.3201L11.1902 12.1738L11.2277 12.1363L11.059 11.9863Z" fill="#FFFCFF"></path>
<path d="M15.6389 12.4087C15.9184 12.4087 16.145 12.1822 16.145 11.9026C16.145 11.6231 15.9184 11.3965 15.6389 11.3965C15.3594 11.3965 15.1328 11.6231 15.1328 11.9026C15.1328 12.1822 15.3594 12.4087 15.6389 12.4087Z" fill="#FFFCFF"></path>
<path d="M16.9475 11.1431C17.227 11.1431 17.4536 10.9164 17.4536 10.637C17.4536 10.3574 17.227 10.1309 16.9475 10.1309C16.668 10.1309 16.4414 10.3574 16.4414 10.637C16.4414 10.9164 16.668 11.1431 16.9475 11.1431Z" fill="#FFFCFF"></path>
<path d="M18.4701 13.0829C18.8118 13.0829 19.0887 12.8059 19.0887 12.4643C19.0887 12.1226 18.8118 11.8457 18.4701 11.8457C18.1285 11.8457 17.8516 12.1226 17.8516 12.4643C17.8516 12.8059 18.1285 13.0829 18.4701 13.0829Z" fill="#FFFCFF"></path>
<path d="M16.6344 10.7637L15.5273 11.8703L15.6798 12.0228L16.7867 10.9162L16.6344 10.7637Z" fill="#FFFCFF"></path>
<path d="M15.5609 11.7227L15.5234 11.9476L18.3914 12.3881L18.4195 12.1725L15.5609 11.7227Z" fill="#FFFCFF"></path>
<path d="M16.8656 10.4121L16.6875 10.5433L18.1215 12.3897L18.2996 12.2585L16.8656 10.4121Z" fill="#FFFCFF"></path>
<path d="M7.31241 13.2713C7.49358 13.2713 7.64045 13.1244 7.64045 12.9433C7.64045 12.762 7.49358 12.6152 7.31241 12.6152C7.13124 12.6152 6.98438 12.762 6.98438 12.9433C6.98438 13.1244 7.13124 13.2713 7.31241 13.2713Z" fill="#6C52DD"></path>
<path d="M7.31471 16.2232C7.59423 16.2232 7.82082 15.9966 7.82082 15.717C7.82082 15.4376 7.59423 15.2109 7.31471 15.2109C7.03519 15.2109 6.80859 15.4376 6.80859 15.717C6.80859 15.9966 7.03519 16.2232 7.31471 16.2232Z" fill="#6C52DD"></path>
</g>
</g>
<defs>
<clipPath id="clip0_2750_1150-1661">
<rect width="26.4133" height="26.4133" fill="white" transform="translate(0.246094 0.5)"></rect>
</clipPath>
</defs>
</svg>